<svg width="24" height="24" viewBox="0 0 24 24" fill="none" xmlns="http://www.w3.org/2000/svg">
<g id="icon/line/basic information">
<path id="Union" fill-rule="evenodd" clip-rule="evenodd" d="M8 10.5C9.38071 10.5 10.5 9.38071 10.5 8C10.5 6.61929 9.38071 5.5 8 5.5C6.61929 5.5 5.5 6.61929 5.5 8C5.5 9.38071 6.61929 10.5 8 10.5ZM8 12C10.2091 12 12 10.2091 12 8C12 5.79086 10.2091 4 8 4C5.79086 4 4 5.79086 4 8C4 10.2091 5.79086 12 8 12Z" fill="#242424"/>
<path id="Rectangle 1112" d="M11 20V17C11 14.7909 9.20914 13 7 13V13C4.79086 13 3 14.7909 3 17V20" stroke="#242424" stroke-width="1.5" stroke-linecap="round" stroke-linejoin="round"/>
<path id="Rectangle 1113" d="M21 20V19.5C21 17.567 19.433 16 17.5 16V16C15.567 16 14 17.567 14 19.5V20" stroke="#242424" stroke-width="1.5" stroke-linecap="round" stroke-linejoin="round"/>
<circle id="Ellipse 4" cx="16.5" cy="11.5" r="2.5" stroke="#242424" stroke-width="1.5" stroke-linejoin="round"/>
</g>
</svg>
