<svg width="21" height="21" viewBox="0 0 21 21" fill="none" xmlns="http://www.w3.org/2000/svg">
<g id="Component 5">
<path id="Union" fill-rule="evenodd" clip-rule="evenodd" d="M12.5 7.5C12.5 8.60457 11.6046 9.5 10.5 9.5C9.39543 9.5 8.5 8.60457 8.5 7.5C8.5 6.39543 9.39543 5.5 10.5 5.5C11.6046 5.5 12.5 6.39543 12.5 7.5ZM12.364 10.4629C13.347 9.84317 14 8.74785 14 7.5C14 5.567 12.433 4 10.5 4C8.567 4 7 5.567 7 7.5C7 8.74785 7.65303 9.84317 8.63598 10.4629C7.70689 10.6811 6.86431 11.0599 6.16978 11.565C5.03377 12.3912 4.25 13.5964 4.25 15C4.25 15.4142 4.58579 15.75 5 15.75C5.41421 15.75 5.75 15.4142 5.75 15C5.75 14.1945 6.19744 13.3997 7.05204 12.7781C7.90591 12.1571 9.12251 11.75 10.5 11.75C11.8775 11.75 13.0941 12.1571 13.948 12.7781C14.8026 13.3997 15.25 14.1945 15.25 15C15.25 15.4142 15.5858 15.75 16 15.75C16.4142 15.75 16.75 15.4142 16.75 15C16.75 13.5964 15.9662 12.3912 14.8302 11.565C14.1357 11.0599 13.2931 10.6811 12.364 10.4629Z" fill="#242424"/>
<path id="Vector" d="M15.25 1H5.25C2.90279 1 1 2.90279 1 5.25V15.25C1 17.5972 2.90279 19.5 5.25 19.5H15.25C17.5972 19.5 19.5 17.5972 19.5 15.25V5.25C19.5 2.90279 17.5972 1 15.25 1Z" stroke="#242424" stroke-width="1.5"/>
</g>
</svg>
