<svg width="14" height="14" viewBox="0 0 14 14" fill="none" xmlns="http://www.w3.org/2000/svg">
<g id="Icons">
<path id="Vector" d="M6.41675 2.33337H2.33341C2.024 2.33337 1.72725 2.45629 1.50846 2.67508C1.28966 2.89388 1.16675 3.19062 1.16675 3.50004V11.6667C1.16675 11.9761 1.28966 12.2729 1.50846 12.4917C1.72725 12.7105 2.024 12.8334 2.33341 12.8334H10.5001C10.8095 12.8334 11.1062 12.7105 11.325 12.4917C11.5438 12.2729 11.6667 11.9761 11.6667 11.6667V7.58337" stroke="white" stroke-width="1.5" stroke-linecap="round" stroke-linejoin="round"/>
<path id="Vector_2" d="M10.2305 2.09649C10.4524 1.87464 10.7533 1.75 11.067 1.75C11.3808 1.75 11.6817 1.87464 11.9035 2.09649C12.1254 2.31834 12.25 2.61924 12.25 2.93299C12.25 3.24674 12.1254 3.54764 11.9035 3.76949L6.60567 9.06733L4.375 9.625L4.93267 7.39433L10.2305 2.09649Z" stroke="white" stroke-width="1.5" stroke-linecap="round" stroke-linejoin="round"/>
</g>
</svg>
