<svg width="25" height="24" viewBox="0 0 25 24" fill="none" xmlns="http://www.w3.org/2000/svg">
<g id="service">
<path id="Rectangle 18" d="M7.9 22C4.91766 22 2.5 19.5823 2.5 16.6C2.5 14.6118 4.11177 13 6.1 13L11.5 13L11.5 18.4C11.5 20.3882 9.88823 22 7.9 22Z" fill="#D1D1E7"/>
<path id="Rectangle 19" d="M17.1 2C20.0823 2 22.5 4.41766 22.5 7.4C22.5 9.38822 20.8882 11 18.9 11L13.5 11L13.5 5.6C13.5 3.61177 15.1118 2 17.1 2Z" fill="#D1D1E7"/>
<path id="Rectangle 17" d="M22.5 16.6C22.5 19.5823 20.0823 22 17.1 22C15.1118 22 13.5 20.3882 13.5 18.4L13.5 13L18.9 13C20.8882 13 22.5 14.6118 22.5 16.6Z" fill="#D1D1E7"/>
<path id="Rectangle 20" d="M2.5 7.4C2.5 4.41766 4.91766 2 7.9 2C9.88822 2 11.5 3.61177 11.5 5.6L11.5 11L6.1 11C4.11177 11 2.5 9.38823 2.5 7.4Z" fill="#D1D1E7"/>
</g>
</svg>
