<svg width="22" height="22" viewBox="0 0 22 22" fill="none" xmlns="http://www.w3.org/2000/svg">
<g id="face id">
<path fill-rule="evenodd" clip-rule="evenodd" d="M2.01562 6.48828V4.24219C2.01562 3.01445 3.01447 2.01562 4.24219 2.01562H6.48828C6.76873 2.01562 6.99609 1.78826 6.99609 1.50781C6.99609 1.22736 6.76873 1 6.48828 1H4.24219C2.45445 1 1 2.45443 1 4.24219V6.48828C1 6.76873 1.22736 6.99609 1.50781 6.99609C1.78826 6.99609 2.01562 6.76873 2.01562 6.48828ZM6.48828 19.9844C6.76873 19.9844 6.99609 20.2117 6.99609 20.4922C6.99609 20.7726 6.76873 21 6.48828 21H4.24219C2.45445 21 1 19.5455 1 17.7578V15.5117C1 15.2313 1.22736 15.0039 1.50781 15.0039C1.78826 15.0039 2.01562 15.2313 2.01562 15.5117V17.7578C2.01562 18.9855 3.01447 19.9844 4.24219 19.9844H6.48828ZM21 15.5117V17.7578C21 19.5455 19.5455 21 17.7578 21H15.5117C15.2313 21 15.0039 20.7726 15.0039 20.4922C15.0039 20.2117 15.2313 19.9844 15.5117 19.9844H17.7578C18.9855 19.9844 19.9844 18.9855 19.9844 17.7578V15.5117C19.9844 15.2313 20.2117 15.0039 20.4922 15.0039C20.7726 15.0039 21 15.2313 21 15.5117ZM21 4.24219V6.48828C21 6.76873 20.7726 6.99609 20.4922 6.99609C20.2117 6.99609 19.9844 6.76873 19.9844 6.48828V4.24219C19.9844 3.01445 18.9855 2.01562 17.7578 2.01562H15.5117C15.2313 2.01562 15.0039 1.78826 15.0039 1.50781C15.0039 1.22736 15.2313 1 15.5117 1H17.7578C19.5455 1 21 2.45443 21 4.24219ZM14.5044 15.7819C14.7184 15.5843 14.7316 15.2507 14.534 15.0367C14.3363 14.8228 14.0027 14.8096 13.7888 15.0071C13.0275 15.7104 12.0371 16.0976 11 16.0976C9.96283 16.0976 8.9724 15.7104 8.21113 15.0071C7.99714 14.8096 7.66357 14.8228 7.46593 15.0367C7.26831 15.2507 7.28154 15.5843 7.49548 15.7819C8.45222 16.6656 9.69677 17.1523 11 17.1523C12.3031 17.1523 13.5477 16.6656 14.5044 15.7819ZM12.0547 8.53906V12.2891C12.0547 13.0322 11.4501 13.6367 10.707 13.6367H10.2773C9.98609 13.6367 9.75 13.4006 9.75 13.1094C9.75 12.8181 9.98609 12.582 10.2773 12.582H10.707C10.8686 12.582 11 12.4506 11 12.2891V8.53906C11 8.24781 11.2361 8.01172 11.5273 8.01172C11.8186 8.01172 12.0547 8.24781 12.0547 8.53906ZM15.6875 10.0137V8.50977C15.6875 8.23471 15.4645 8.01172 15.1895 8.01172C14.9144 8.01172 14.6914 8.23471 14.6914 8.50977V10.0137C14.6914 10.2887 14.9144 10.5117 15.1895 10.5117C15.4645 10.5117 15.6875 10.2887 15.6875 10.0137ZM6.42969 10.0137C6.42969 10.2887 6.65268 10.5117 6.92773 10.5117C7.20279 10.5117 7.42578 10.2887 7.42578 10.0137V8.50977C7.42578 8.23471 7.20279 8.01172 6.92773 8.01172C6.65268 8.01172 6.42969 8.23471 6.42969 8.50977V10.0137Z" fill="#242424"/>
<path d="M14.534 15.0367L14.6809 14.901L14.6809 14.901L14.534 15.0367ZM14.5044 15.7819L14.6401 15.9288L14.6401 15.9288L14.5044 15.7819ZM13.7888 15.0071L13.6531 14.8602L13.6531 14.8602L13.7888 15.0071ZM8.21113 15.0071L8.34683 14.8602L8.34681 14.8602L8.21113 15.0071ZM7.46593 15.0367L7.31903 14.901L7.31902 14.901L7.46593 15.0367ZM7.49548 15.7819L7.35978 15.9288L7.35978 15.9288L7.49548 15.7819ZM1.81563 4.24219V6.48828H2.21563V4.24219H1.81563ZM4.24219 1.81563C2.90402 1.81563 1.81563 2.904 1.81563 4.24219H2.21563C2.21563 3.12491 3.12493 2.21563 4.24219 2.21563V1.81563ZM6.48828 1.81563H4.24219V2.21563H6.48828V1.81563ZM6.79609 1.50781C6.79609 1.6778 6.65827 1.81563 6.48828 1.81563V2.21563C6.87919 2.21563 7.19609 1.89872 7.19609 1.50781H6.79609ZM6.48828 1.2C6.65827 1.2 6.79609 1.33782 6.79609 1.50781H7.19609C7.19609 1.11691 6.87919 0.8 6.48828 0.8V1.2ZM4.24219 1.2H6.48828V0.8H4.24219V1.2ZM1.2 4.24219C1.2 2.56489 2.56491 1.2 4.24219 1.2V0.8C2.344 0.8 0.8 2.34398 0.8 4.24219H1.2ZM1.2 6.48828V4.24219H0.8V6.48828H1.2ZM1.50781 6.79609C1.33782 6.79609 1.2 6.65827 1.2 6.48828H0.8C0.8 6.87919 1.11691 7.19609 1.50781 7.19609V6.79609ZM1.81563 6.48828C1.81563 6.65827 1.6778 6.79609 1.50781 6.79609V7.19609C1.89872 7.19609 2.21563 6.87919 2.21563 6.48828H1.81563ZM7.19609 20.4922C7.19609 20.1013 6.87919 19.7844 6.48828 19.7844V20.1844C6.65827 20.1844 6.79609 20.3222 6.79609 20.4922H7.19609ZM6.48828 21.2C6.87919 21.2 7.19609 20.8831 7.19609 20.4922H6.79609C6.79609 20.6622 6.65827 20.8 6.48828 20.8V21.2ZM4.24219 21.2H6.48828V20.8H4.24219V21.2ZM0.8 17.7578C0.8 19.656 2.344 21.2 4.24219 21.2V20.8C2.56491 20.8 1.2 19.4351 1.2 17.7578H0.8ZM0.8 15.5117V17.7578H1.2V15.5117H0.8ZM1.50781 14.8039C1.11691 14.8039 0.8 15.1208 0.8 15.5117H1.2C1.2 15.3417 1.33782 15.2039 1.50781 15.2039V14.8039ZM2.21563 15.5117C2.21563 15.1208 1.89872 14.8039 1.50781 14.8039V15.2039C1.6778 15.2039 1.81563 15.3417 1.81563 15.5117H2.21563ZM2.21563 17.7578V15.5117H1.81563V17.7578H2.21563ZM4.24219 19.7844C3.12493 19.7844 2.21563 18.8751 2.21563 17.7578H1.81563C1.81563 19.096 2.90402 20.1844 4.24219 20.1844V19.7844ZM6.48828 19.7844H4.24219V20.1844H6.48828V19.7844ZM21.2 17.7578V15.5117H20.8V17.7578H21.2ZM17.7578 21.2C19.656 21.2 21.2 19.656 21.2 17.7578H20.8C20.8 19.4351 19.4351 20.8 17.7578 20.8V21.2ZM15.5117 21.2H17.7578V20.8H15.5117V21.2ZM14.8039 20.4922C14.8039 20.8831 15.1208 21.2 15.5117 21.2V20.8C15.3417 20.8 15.2039 20.6622 15.2039 20.4922H14.8039ZM15.5117 19.7844C15.1208 19.7844 14.8039 20.1013 14.8039 20.4922H15.2039C15.2039 20.3222 15.3417 20.1844 15.5117 20.1844V19.7844ZM17.7578 19.7844H15.5117V20.1844H17.7578V19.7844ZM19.7844 17.7578C19.7844 18.8751 18.8751 19.7844 17.7578 19.7844V20.1844C19.096 20.1844 20.1844 19.096 20.1844 17.7578H19.7844ZM19.7844 15.5117V17.7578H20.1844V15.5117H19.7844ZM20.4922 14.8039C20.1013 14.8039 19.7844 15.1208 19.7844 15.5117H20.1844C20.1844 15.3417 20.3222 15.2039 20.4922 15.2039V14.8039ZM21.2 15.5117C21.2 15.1208 20.8831 14.8039 20.4922 14.8039V15.2039C20.6622 15.2039 20.8 15.3417 20.8 15.5117H21.2ZM21.2 6.48828V4.24219H20.8V6.48828H21.2ZM20.4922 7.19609C20.8831 7.19609 21.2 6.87919 21.2 6.48828H20.8C20.8 6.65827 20.6622 6.79609 20.4922 6.79609V7.19609ZM19.7844 6.48828C19.7844 6.87919 20.1013 7.19609 20.4922 7.19609V6.79609C20.3222 6.79609 20.1844 6.65827 20.1844 6.48828H19.7844ZM19.7844 4.24219V6.48828H20.1844V4.24219H19.7844ZM17.7578 2.21563C18.8751 2.21563 19.7844 3.12491 19.7844 4.24219H20.1844C20.1844 2.904 19.096 1.81563 17.7578 1.81563V2.21563ZM15.5117 2.21563H17.7578V1.81563H15.5117V2.21563ZM14.8039 1.50781C14.8039 1.89872 15.1208 2.21563 15.5117 2.21563V1.81563C15.3417 1.81563 15.2039 1.6778 15.2039 1.50781H14.8039ZM15.5117 0.8C15.1208 0.8 14.8039 1.11691 14.8039 1.50781H15.2039C15.2039 1.33782 15.3417 1.2 15.5117 1.2V0.8ZM17.7578 0.8H15.5117V1.2H17.7578V0.8ZM21.2 4.24219C21.2 2.34398 19.656 0.8 17.7578 0.8V1.2C19.4351 1.2 20.8 2.56489 20.8 4.24219H21.2ZM14.3871 15.1724C14.5097 15.3052 14.5015 15.5123 14.3687 15.635L14.6401 15.9288C14.9352 15.6563 14.9535 15.1961 14.6809 14.901L14.3871 15.1724ZM13.9245 15.1541C14.0573 15.0314 14.2644 15.0396 14.3871 15.1724L14.6809 14.901C14.4083 14.6059 13.9482 14.5877 13.6531 14.8602L13.9245 15.1541ZM11 16.2976C12.0873 16.2976 13.1262 15.8914 13.9245 15.1541L13.6531 14.8602C12.9288 15.5293 11.9868 15.8976 11 15.8976V16.2976ZM8.07542 15.1541C8.87367 15.8914 9.91257 16.2976 11 16.2976V15.8976C10.0131 15.8976 9.07112 15.5293 8.34683 14.8602L8.07542 15.1541ZM7.61284 15.1724C7.73553 15.0396 7.94259 15.0314 8.07544 15.1541L8.34681 14.8602C8.05169 14.5877 7.59161 14.606 7.31903 14.901L7.61284 15.1724ZM7.63119 15.635C7.49839 15.5123 7.49017 15.3052 7.61285 15.1724L7.31902 14.901C7.04646 15.1961 7.06469 15.6563 7.35978 15.9288L7.63119 15.635ZM11 16.9523C9.74704 16.9523 8.55095 16.4846 7.63119 15.635L7.35978 15.9288C8.35349 16.8467 9.6465 17.3523 11 17.3523V16.9523ZM14.3687 15.635C13.449 16.4846 12.2529 16.9523 11 16.9523V17.3523C12.3534 17.3523 13.6464 16.8467 14.6401 15.9288L14.3687 15.635ZM12.2547 12.2891V8.53906H11.8547V12.2891H12.2547ZM10.707 13.8367C11.5606 13.8367 12.2547 13.1426 12.2547 12.2891H11.8547C11.8547 12.9217 11.3397 13.4367 10.707 13.4367V13.8367ZM10.2773 13.8367H10.707V13.4367H10.2773V13.8367ZM9.55 13.1094C9.55 13.5111 9.87564 13.8367 10.2773 13.8367V13.4367C10.0966 13.4367 9.95 13.2902 9.95 13.1094H9.55ZM10.2773 12.382C9.87564 12.382 9.55 12.7077 9.55 13.1094H9.95C9.95 12.9286 10.0966 12.782 10.2773 12.782V12.382ZM10.707 12.382H10.2773V12.782H10.707V12.382ZM10.8 12.2891C10.8 12.3401 10.7581 12.382 10.707 12.382V12.782C10.979 12.782 11.2 12.5611 11.2 12.2891H10.8ZM10.8 8.53906V12.2891H11.2V8.53906H10.8ZM11.5273 7.81172C11.1256 7.81172 10.8 8.13736 10.8 8.53906H11.2C11.2 8.35827 11.3466 8.21172 11.5273 8.21172V7.81172ZM12.2547 8.53906C12.2547 8.13736 11.9291 7.81172 11.5273 7.81172V8.21172C11.7081 8.21172 11.8547 8.35827 11.8547 8.53906H12.2547ZM15.4875 8.50977V10.0137H15.8875V8.50977H15.4875ZM15.1895 8.21172C15.3541 8.21172 15.4875 8.34516 15.4875 8.50977H15.8875C15.8875 8.12425 15.575 7.81172 15.1895 7.81172V8.21172ZM14.8914 8.50977C14.8914 8.34516 15.0249 8.21172 15.1895 8.21172V7.81172C14.8039 7.81172 14.4914 8.12425 14.4914 8.50977H14.8914ZM14.8914 10.0137V8.50977H14.4914V10.0137H14.8914ZM15.1895 10.3117C15.0249 10.3117 14.8914 10.1783 14.8914 10.0137H14.4914C14.4914 10.3992 14.8039 10.7117 15.1895 10.7117V10.3117ZM15.4875 10.0137C15.4875 10.1783 15.3541 10.3117 15.1895 10.3117V10.7117C15.575 10.7117 15.8875 10.3992 15.8875 10.0137H15.4875ZM6.92773 10.3117C6.76313 10.3117 6.62969 10.1783 6.62969 10.0137H6.22969C6.22969 10.3992 6.54222 10.7117 6.92773 10.7117V10.3117ZM7.22578 10.0137C7.22578 10.1783 7.09234 10.3117 6.92773 10.3117V10.7117C7.31325 10.7117 7.62578 10.3992 7.62578 10.0137H7.22578ZM7.22578 8.50977V10.0137H7.62578V8.50977H7.22578ZM6.92773 8.21172C7.09234 8.21172 7.22578 8.34516 7.22578 8.50977H7.62578C7.62578 8.12425 7.31325 7.81172 6.92773 7.81172V8.21172ZM6.62969 8.50977C6.62969 8.34516 6.76313 8.21172 6.92773 8.21172V7.81172C6.54222 7.81172 6.22969 8.12425 6.22969 8.50977H6.62969ZM6.62969 10.0137V8.50977H6.22969V10.0137H6.62969Z" fill="black"/>
</g>
</svg>
