<svg width="25" height="24" viewBox="0 0 25 24" fill="none" xmlns="http://www.w3.org/2000/svg">
<g id="Property 2=on">
<path id="Subtract" fill-rule="evenodd" clip-rule="evenodd" d="M4.53472 6.35224C3.27759 7.06139 2.5 8.3928 2.5 9.83615V18C2.5 20.2092 4.29086 22 6.5 22H8.99999V16.7501C8.99999 14.9551 10.4551 13.5001 12.25 13.5001C14.0449 13.5001 15.5 14.9551 15.5 16.7501V22H18.5C20.7091 22 22.5 20.2092 22.5 18V9.89316C22.5 8.41954 21.6898 7.06527 20.3913 6.36851L14.1895 3.04073C12.9819 2.39274 11.5266 2.40811 10.3329 3.08145L4.53472 6.35224Z" fill="#D1D1E7"/>
<rect id="Rectangle 21" x="0.5" y="8" width="14.261" height="3" rx="1.5" transform="rotate(-30 0.5 8)" fill="#D1D1E7"/>
<rect id="Rectangle 22" x="11.7798" y="0.872803" width="14.6536" height="3" rx="1.5" transform="rotate(30 11.7798 0.872803)" fill="#D1D1E7"/>
</g>
</svg>
