<svg width="24" height="24" viewBox="0 0 24 24" fill="none" xmlns="http://www.w3.org/2000/svg">
<g id="icon/line/telco information">
<path id="Ellipse 542" d="M17 10C17 7.23858 14.7614 5 12 5C9.23858 5 7 7.23858 7 10" stroke="black" stroke-width="1.5" stroke-linecap="round"/>
<path id="Ellipse 543" d="M20 10C20 5.58172 16.4183 2 12 2C7.58172 2 4 5.58172 4 10" stroke="black" stroke-width="1.5" stroke-linecap="round"/>
<circle id="Ellipse 541" cx="12" cy="10" r="2" stroke="#1B1B1B" stroke-width="1.5"/>
<rect id="Rectangle 422" width="12.2094" height="1.4926" rx="0.746298" transform="matrix(0.278634 -0.960398 0.970718 0.240224 6.76367 22.725)" fill="#1B1B1B"/>
<rect id="Rectangle 427" width="12.1626" height="1.4926" rx="0.746298" transform="matrix(-0.278634 -0.960398 -0.970718 0.240224 17.1074 22.725)" fill="#1B1B1B"/>
<rect id="Rectangle 424" x="9" y="16.4805" width="4.96077" height="1.5" transform="rotate(-30 9 16.4805)" fill="#1B1B1B"/>
<rect id="Rectangle 428" width="6.90428" height="1.5" transform="matrix(0.866025 0.5 0.5 -0.866025 9 17.2988)" fill="#1B1B1B"/>
</g>
</svg>
